{
    "asset" : {
        "generator" : "Khronos glTF Blender I/O v1.8.19",
        "version" : "2.0"
    },
    "scene" : 0,
    "scenes" : [
        {
            "name" : "Scene",
            "nodes" : [
                0
            ]
        }
    ],
    "nodes" : [
        {
            "mesh" : 0,
            "name" : "Arena"
        }
    ],
    "meshes" : [
        {
            "name" : "Arena",
            "primitives" : [
                {
                    "attributes" : {
                        "POSITION" : 0,
                        "NORMAL" : 1,
                        "TEXCOORD_0" : 2
                    },
                    "indices" : 3
                }
            ]
        }
    ],
    "accessors" : [
        {
            "bufferView" : 0,
            "componentType" : 5126,
            "count" : 320,
            "max" : [
                16.07062339782715,
                6.5370001792907715,
                7.481541156768799
            ],
            "min" : [
                -15.383334159851074,
                -0.2441556304693222,
                -7.481541156768799
            ],
            "type" : "VEC3"
        },
        {
            "bufferView" : 1,
            "componentType" : 5126,
            "count" : 320,
            "type" : "VEC3"
        },
        {
            "bufferView" : 2,
            "componentType" : 5126,
            "count" : 320,
            "type" : "VEC2"
        },
        {
            "bufferView" : 3,
            "componentType" : 5123,
            "count" : 948,
            "type" : "SCALAR"
        }
    ],
    "bufferViews" : [
        {
            "buffer" : 0,
            "byteLength" : 3840,
            "byteOffset" : 0
        },
        {
            "buffer" : 0,
            "byteLength" : 3840,
            "byteOffset" : 3840
        },
        {
            "buffer" : 0,
            "byteLength" : 2560,
            "byteOffset" : 7680
        },
        {
            "buffer" : 0,
            "byteLength" : 1896,
            "byteOffset" : 10240
        }
    ],
    "buffers" : [
        {
            "byteLength" : 12136,
            "uri" : "data:application/octet-stream;base64,"
        }
    ]
}
