{
    "asset" : {
        "generator" : "Khronos glTF Blender I/O v1.8.19",
        "version" : "2.0"
    },
    "scene" : 0,
    "scenes" : [
        {
            "name" : "Scene",
            "nodes" : [
                0
            ]
        }
    ],
    "nodes" : [
        {
            "mesh" : 0,
            "name" : "Capsule"
        }
    ],
    "meshes" : [
        {
            "name" : "Roundcube",
            "primitives" : [
                {
                    "attributes" : {
                        "POSITION" : 0,
                        "NORMAL" : 1
                    },
                    "indices" : 2
                }
            ]
        }
    ],
    "accessors" : [
        {
            "bufferView" : 0,
            "componentType" : 5126,
            "count" : 418,
            "max" : [
                0.25,
                0.5,
                0.25
            ],
            "min" : [
                -0.25,
                -0.5,
                -0.25
            ],
            "type" : "VEC3"
        },
        {
            "bufferView" : 1,
            "componentType" : 5126,
            "count" : 418,
            "type" : "VEC3"
        },
        {
            "bufferView" : 2,
            "componentType" : 5123,
            "count" : 2496,
            "type" : "SCALAR"
        }
    ],
    "bufferViews" : [
        {
            "buffer" : 0,
            "byteLength" : 5016,
            "byteOffset" : 0
        },
        {
            "buffer" : 0,
            "byteLength" : 5016,
            "byteOffset" : 5016
        },
        {
            "buffer" : 0,
            "byteLength" : 4992,
            "byteOffset" : 10032
        }
    ],
    "buffers" : [
        {
            "byteLength" : 15024,
            "uri" : "data:application/octet-stream;base64,"
        }
    ]
}
